<svg width="342" height="282" viewBox="0 0 342 282" fill="none" xmlns="http://www.w3.org/2000/svg">
<g clip-path="url(#clip0)">
<path d="M324.9 0H17.1C7.65593 0 0 6.29106 0 14.0515V266.978C0 274.738 7.65593 281.029 17.1 281.029H324.9C334.344 281.029 342 274.738 342 266.978V14.0515C342 6.29106 334.344 0 324.9 0Z" fill="#F7F9FD"/>
<g filter="url(#filter0_f)">
<path d="M212.9 201.395C242.135 157.453 242.395 96.888 213.482 66.119C184.568 35.3496 137.429 46.0278 108.193 89.9695C78.9587 133.911 78.6982 194.476 107.612 225.245C136.526 256.015 183.665 245.337 212.9 201.395Z" fill="#86FFD3" fill-opacity="0.5"/>
</g>
<g filter="url(#filter1_f)">
<path d="M287.891 72.0261C317.126 28.0842 317.386 -32.4809 288.472 -63.2502C259.558 -94.0197 212.419 -83.341 183.184 -39.3996C153.949 4.54196 153.689 65.1071 182.603 95.8766C211.517 126.646 258.656 115.967 287.891 72.0261Z" fill="#57FFF5" fill-opacity="0.5"/>
</g>
<g filter="url(#filter2_f)">
<path d="M214.668 151.167C285.266 134.68 342.515 92.7897 342.538 57.6011C342.561 22.4123 285.349 7.25079 214.751 23.737C144.154 40.2231 86.9039 82.1139 86.8811 117.303C86.8577 152.491 144.07 167.653 214.668 151.167Z" fill="#D7FF97" fill-opacity="0.5"/>
</g>
</g>
<defs>
<filter id="filter0_f" x="12.0959" y="-25.4561" width="296.902" height="342.277" filterUnits="userSpaceOnUse" color-interpolation-filters="sRGB">
<feFlood flood-opacity="0" result="BackgroundImageFix"/>
<feBlend mode="normal" in="SourceGraphic" in2="BackgroundImageFix" result="shape"/>
<feGaussianBlur stdDeviation="37" result="effect1_foregroundBlur"/>
</filter>
<filter id="filter1_f" x="-22.9134" y="-264.825" width="516.902" height="562.277" filterUnits="userSpaceOnUse" color-interpolation-filters="sRGB">
<feFlood flood-opacity="0" result="BackgroundImageFix"/>
<feBlend mode="normal" in="SourceGraphic" in2="BackgroundImageFix" result="shape"/>
<feGaussianBlur stdDeviation="92" result="effect1_foregroundBlur"/>
</filter>
<filter id="filter2_f" x="-51.1189" y="-120.926" width="531.657" height="416.755" filterUnits="userSpaceOnUse" color-interpolation-filters="sRGB">
<feFlood flood-opacity="0" result="BackgroundImageFix"/>
<feBlend mode="normal" in="SourceGraphic" in2="BackgroundImageFix" result="shape"/>
<feGaussianBlur stdDeviation="69" result="effect1_foregroundBlur"/>
</filter>
<clipPath id="clip0">
<rect width="342" height="281.029" rx="24" fill="white"/>
</clipPath>
</defs>
</svg>
