<svg width="112" height="113" viewBox="0 0 112 113" fill="none" xmlns="http://www.w3.org/2000/svg">
<g filter="url(#filter0_d)">
<mask id="mask0" mask-type="alpha" maskUnits="userSpaceOnUse" x="4" y="0" width="104" height="105">
<path d="M4 31.0882C4 14.1948 17.6948 0.5 34.5882 0.5H77.4118C94.3052 0.5 108 14.1948 108 31.0882V73.9118C108 90.8052 94.3052 104.5 77.4118 104.5H34.5882C17.6948 104.5 4 90.8052 4 73.9118V31.0882Z" fill="white"/>
</mask>
<g mask="url(#mask0)">
<path fill-rule="evenodd" clip-rule="evenodd" d="M273.535 69.6647C273.535 69.6647 267.225 56.293 257.068 51.9819C246.912 47.6707 244.027 54.466 233.871 50.1549C223.714 45.8437 226.599 39.0484 216.442 34.7372C206.286 30.426 203.401 37.2213 193.245 32.9102C183.088 28.599 185.973 21.8036 175.816 17.4925C165.66 13.1813 162.775 19.9766 152.619 15.6655C142.462 11.3543 145.347 4.55895 135.19 0.247772C125.034 -4.0634 122.149 2.73193 111.993 -1.57924C101.836 -5.89042 104.721 -12.6858 94.5643 -16.9969C84.4078 -21.3081 81.5233 -14.5128 71.3669 -18.8239C61.2104 -23.1351 64.0948 -29.9305 53.9383 -34.2416C43.7818 -38.5528 40.8974 -31.7575 30.7409 -36.0686C20.5844 -40.3798 23.4689 -47.1752 13.3124 -51.4863C3.15586 -55.7975 -10.8466 -51.0482 -10.8466 -51.0482L-28.5138 -9.42677L255.868 111.286L273.535 69.6647Z" fill="#035262"/>
<path fill-rule="evenodd" clip-rule="evenodd" d="M234.278 99.5226C234.278 99.5226 227.967 86.1509 217.811 81.8398C207.654 77.5286 204.77 84.3239 194.613 80.0128C184.457 75.7016 187.341 68.9062 177.185 64.5951C167.028 60.2839 164.144 67.0792 153.987 62.7681C143.831 58.4569 146.715 51.6615 136.559 47.3504C126.402 43.0392 123.518 49.8345 113.361 45.5234C103.205 41.2122 106.089 34.4168 95.9326 30.1057C85.7761 25.7945 82.8916 32.5898 72.7351 28.2787C62.5786 23.9675 65.4631 17.1721 55.3066 12.861C45.1501 8.54978 42.2656 15.3451 32.1092 11.0339C21.9527 6.72278 24.8371 -0.0725583 14.6806 -4.38373C4.52414 -8.69491 1.63969 -1.89957 -8.5168 -6.21075C-18.6733 -10.5219 -15.7888 -17.3173 -25.9453 -21.6284C-36.1018 -25.9396 -50.1043 -21.1903 -50.1043 -21.1903L-67.7715 20.4311L216.61 141.144L234.278 99.5226Z" fill="#057C80"/>
<path fill-rule="evenodd" clip-rule="evenodd" d="M197.41 123.749C197.41 123.749 191.099 110.377 180.943 106.066C170.787 101.755 167.902 108.55 157.746 104.239C147.589 99.9277 150.474 93.1323 140.317 88.8212C130.161 84.51 127.276 91.3053 117.12 86.9942C106.963 82.683 109.848 75.8876 99.691 71.5765C89.5345 67.2653 86.6501 74.0606 76.4936 69.7495C66.3371 65.4383 69.2216 58.6429 59.0651 54.3318C48.9086 50.0206 46.0241 56.8159 35.8676 52.5047C25.7111 48.1936 28.5956 41.3982 18.4391 37.0871C8.28258 32.7759 5.39813 39.5712 -4.75837 35.26C-14.9149 30.9489 -12.0304 24.1535 -22.1869 19.8424C-32.3434 15.5312 -35.2278 22.3265 -45.3843 18.0153C-55.5408 13.7042 -52.6564 6.90883 -62.8129 2.59765C-72.9694 -1.71352 -86.9718 3.03575 -86.9718 3.03575L-104.639 44.6572L179.743 165.37L197.41 123.749Z" fill="#05948C"/>
<path fill-rule="evenodd" clip-rule="evenodd" d="M160.543 147.976C160.543 147.976 154.232 134.604 144.076 130.293C133.919 125.982 131.035 132.777 120.878 128.466C110.722 124.155 113.606 117.359 103.45 113.048C93.2931 108.737 90.4087 115.532 80.2522 111.221C70.0957 106.91 72.9801 100.115 62.8236 95.8035C52.6672 91.4923 49.7827 98.2877 39.6262 93.9765C29.4697 89.6653 32.3542 82.87 22.1977 78.5588C12.0412 74.2476 9.15673 81.043 -0.999766 76.7318C-11.1563 72.4206 -8.27181 65.6253 -18.4283 61.3141C-28.5848 57.0029 -31.4693 63.7983 -41.6257 59.4871C-51.7822 55.1759 -48.8978 48.3806 -59.0543 44.0694C-69.2108 39.7582 -72.0952 46.5536 -82.2517 42.2424C-92.4082 37.9312 -89.5237 31.1359 -99.6802 26.8247C-109.837 22.5135 -123.839 27.2628 -123.839 27.2628L-141.506 68.8842L142.875 189.597L160.543 147.976Z" fill="#27AA8F"/>
<path d="M22.0387 39.041H26.9206V53.393C26.9206 54.176 26.8961 55.008 26.8472 55.889C26.7983 56.7699 26.7371 57.6509 26.6637 58.5318C27.4223 56.9902 28.242 55.5097 29.123 54.0904L38.8133 39.041H43.8787V64.7351H38.9968V50.4932C38.9968 49.7102 39.0213 48.8537 39.0703 47.9238C39.1192 46.9939 39.1804 46.064 39.2538 45.1341C38.8378 45.9172 38.434 46.688 38.0425 47.4466C37.651 48.2052 37.2594 48.9026 36.8679 49.5389L27.1408 64.7351H22.0387V39.041Z" fill="white"/>
<path d="M67.6368 44.8772C66.9272 44.4367 65.9973 44.0207 64.8472 43.6292C63.7215 43.2132 62.3512 43.0052 60.7361 43.0052C59.4881 43.0052 58.3992 43.1643 57.4693 43.4824C56.5639 43.776 55.793 44.2654 55.1568 44.9506C54.545 45.6113 54.0801 46.4923 53.762 47.5934C53.4683 48.6946 53.3215 50.0527 53.3215 51.6678C53.3215 53.4052 53.4806 54.8612 53.7987 56.0358C54.1413 57.1859 54.6307 58.1158 55.2669 58.8254C55.9276 59.5106 56.7352 60 57.6895 60.2937C58.6683 60.5873 59.7817 60.7342 61.0297 60.7342C61.8373 60.7342 62.5959 60.673 63.3055 60.5506C64.0396 60.4038 64.7126 60.2325 65.3243 60.0367C65.9361 59.841 66.4744 59.633 66.9394 59.4127C67.4043 59.1925 67.7836 58.9845 68.0773 58.7887V63.6339C67.441 63.9765 66.4867 64.3191 65.2142 64.6617C63.9662 64.9798 62.4735 65.1389 60.7361 65.1389C58.5337 65.1389 56.6373 64.8819 55.0467 64.368C53.4806 63.8542 52.1836 63.0711 51.1559 62.0189C50.1281 60.9422 49.3695 59.5718 48.8801 57.9078C48.3907 56.2438 48.146 54.2739 48.146 51.9982C48.146 47.3732 49.1615 43.9963 51.1926 41.8673C53.2236 39.7139 56.3926 38.6372 60.6994 38.6372C62.3879 38.6372 63.8072 38.784 64.9573 39.0777C66.1074 39.3469 67.0006 39.5793 67.6368 39.7751V44.8772Z" fill="white"/>
<path d="M74.6255 59.7064C74.8946 59.9022 75.225 60.0857 75.6165 60.257C76.0325 60.4038 76.473 60.4772 76.9379 60.4772C77.4273 60.4772 77.9167 60.3671 78.4062 60.1469C78.8956 59.9022 79.2993 59.4005 79.6175 58.6419L69.4499 39.041H75.176L82.297 53.4664L88.1332 39.041H93.2353L84.536 59.3393C84.0466 60.465 83.5572 61.3949 83.0678 62.129C82.6029 62.8631 82.1012 63.4504 81.5629 63.8909C81.0245 64.3313 80.4372 64.6372 79.801 64.8085C79.1647 64.9798 78.4551 65.0655 77.672 65.0655C76.5709 65.0655 75.5553 64.8697 74.6255 64.4782V59.7064Z" fill="white"/>
</g>
</g>
<defs>
<filter id="filter0_d" x="0" y="0.5" width="112" height="112" filterUnits="userSpaceOnUse" color-interpolation-filters="sRGB">
<feFlood flood-opacity="0" result="BackgroundImageFix"/>
<feColorMatrix in="SourceAlpha" type="matrix" values="0 0 0 0 0 0 0 0 0 0 0 0 0 0 0 0 0 0 127 0"/>
<feOffset dy="4"/>
<feGaussianBlur stdDeviation="2"/>
<feColorMatrix type="matrix" values="0 0 0 0 0 0 0 0 0 0 0 0 0 0 0 0 0 0 0.35 0"/>
<feBlend mode="normal" in2="BackgroundImageFix" result="effect1_dropShadow"/>
<feBlend mode="normal" in="SourceGraphic" in2="effect1_dropShadow" result="shape"/>
</filter>
</defs>
</svg>
